<svg xmlns="http://www.w3.org/2000/svg" xmlns:xlink="http://www.w3.org/1999/xlink" version="1.1" width="1000" height="1000" viewBox="0 0 1000 1000" xml:space="preserve">
<desc>Created with Fabric.js 3.5.0</desc>
<defs>
</defs>
<rect x="0" y="0" width="100%" height="100%" fill="#ffffff"/>
<g transform="matrix(-1.2419 0 0 1.2419 499.5963 499.5963)" id="435339">
<g style="" vector-effect="non-scaling-stroke">
		<g transform="matrix(2.7119 0 0 2.7119 0.0022 0.002)" id="Capa_1">
<path style="stroke: none; stroke-width: 1; stroke-dasharray: none; stroke-linecap: butt; stroke-dashoffset: 0; stroke-linejoin: miter; stroke-miterlimit: 4; is-custom-font: none; font-file-url: none; fill: rgb(0,0,0); fill-rule: nonzero; opacity: 1;" transform=" translate(-147.4989, -147.4988)" d="M 286.36 98.016 c -13.223 -37.091 -40.098 -66.813 -75.675 -83.691 C 175.109 -2.554 135.088 -4.567 97.997 8.656 C 60.906 21.879 31.183 48.754 14.305 84.331 C -2.572 119.908 -4.585 159.928 8.637 197.02 c 1.113 3.122 4.547 4.748 7.667 3.637 c 3.122 -1.113 4.75 -4.545 3.637 -7.667 C 7.794 158.918 9.643 122.155 25.147 89.474 s 42.807 -57.369 76.879 -69.515 c 34.072 -12.146 70.836 -10.296 103.516 5.207 c 32.682 15.504 57.369 42.807 69.516 76.879 c 12.146 34.072 10.297 70.835 -5.207 103.516 s -42.807 57.369 -76.879 69.515 c -38.189 13.613 -80.082 9.493 -114.935 -11.304 c -2.848 -1.699 -6.529 -0.768 -8.227 2.078 c -1.698 2.846 -0.768 6.529 2.078 8.227 c 23.207 13.848 49.276 20.903 75.541 20.902 c 16.674 0 33.43 -2.845 49.572 -8.599 c 37.092 -13.223 66.813 -40.098 83.691 -75.675 C 297.57 175.127 299.583 135.107 286.36 98.016 z" stroke-linecap="round"/>
</g>
		<g transform="matrix(2.7119 0 0 2.7119 -39.9034 0.0529)" id="Capa_1">
<path style="stroke: none; stroke-width: 1; stroke-dasharray: none; stroke-linecap: butt; stroke-dashoffset: 0; stroke-linejoin: miter; stroke-miterlimit: 4; is-custom-font: none; font-file-url: none; fill: rgb(0,0,0); fill-rule: nonzero; opacity: 1;" transform=" translate(-132.784, -147.518)" d="M 213.499 147.518 c 0 -3.313 -2.687 -6 -6 -6 H 58.069 c -3.314 0 -6 2.687 -6 6 s 2.686 6 6 6 h 149.43 C 210.812 153.518 213.499 150.831 213.499 147.518 z" stroke-linecap="round"/>
</g>
		<g transform="matrix(2.7119 0 0 2.7119 151.6751 0.0517)" id="Capa_1">
<path style="stroke: none; stroke-width: 1; stroke-dasharray: none; stroke-linecap: butt; stroke-dashoffset: 0; stroke-linejoin: miter; stroke-miterlimit: 4; is-custom-font: none; font-file-url: none; fill: rgb(0,0,0); fill-rule: nonzero; opacity: 1;" transform=" translate(-203.428, -147.5174)" d="M 165.686 210.275 c -2.344 2.343 -2.344 6.142 0 8.485 c 1.171 1.171 2.707 1.757 4.242 1.757 s 3.071 -0.586 4.242 -1.757 l 67 -67 c 2.344 -2.343 2.344 -6.142 0 -8.485 l -67 -67 c -2.342 -2.343 -6.143 -2.343 -8.484 0 c -2.344 2.343 -2.344 6.142 0 8.485 l 62.757 62.757 L 165.686 210.275 z" stroke-linecap="round"/>
</g>
</g>
</g>
</svg>